<svg width="100" height="100" viewBox="0 0 100 100" fill="none" xmlns="http://www.w3.org/2000/svg">
<mask id="mask0_6_70" style="mask-type:alpha" maskUnits="userSpaceOnUse" x="4" y="4" width="92" height="92">
<path d="M39.6583 91.6667C37.6166 85.0104 34.5375 80.0458 30.4187 76.7771C24.2417 71.875 14.4271 74.9229 10.8021 69.8646C7.17707 64.8063 13.3417 55.5063 15.5042 50.0188C17.6687 44.5313 7.21249 42.5917 8.43332 41.0333C9.24582 39.9938 14.5312 36.9979 24.2854 32.0417C27.0562 16.2375 37.2917 8.33334 54.9958 8.33334C81.55 8.33334 91.6666 30.8458 91.6666 45.1667C91.6666 59.4833 79.4167 74.9083 61.9667 78.2354C60.4062 80.5063 62.6562 84.9854 68.7167 91.6667" stroke="white" stroke-width="7" stroke-linecap="round" stroke-linejoin="round"/>
<path fill-rule="evenodd" clip-rule="evenodd" d="M40.625 30.2083C39.2625 35.4875 39.6667 39.1958 41.8396 41.3313C44.0104 43.4646 47.7104 44.8625 52.9396 45.5188C51.7521 52.3292 53.2 55.5229 57.2791 55.1021C61.3583 54.6833 63.8104 52.9875 64.6333 50.0188C71.0083 51.8104 74.4646 50.3104 75 45.5188C75.8021 38.3313 71.9271 32.6 70.3375 32.6C68.75 32.6 64.6333 32.4063 64.6333 30.2083C64.6333 28.0104 59.825 26.7708 55.4854 26.7708C51.1458 26.7708 53.7562 23.8438 47.7979 25C43.825 25.7708 41.4333 27.5063 40.625 30.2083V30.2083Z" fill="#555555" stroke="white" stroke-width="4" stroke-linejoin="round"/>
<path d="M63.5416 53.125C61.4229 54.4396 58.5166 56.625 57.2916 58.3333C54.2312 62.6042 51.75 65.2042 51.2083 67.9333" stroke="white" stroke-width="4" stroke-linecap="round"/>
</mask>
<g mask="url(#mask0_6_70)">
<path d="M0 0H100V100H0V0Z" fill="#040454"/>
</g>
</svg>
